<svg xmlns="http://www.w3.org/2000/svg" viewBox="0 0 24 24">
  <symbol id="icon-diff" viewBox="0 0 24 24">
    <path d="M12 2C10.9 2 10 2.9 10 4s.9 2 2 2 2-.9 2-2-.9-2-2-2zm0 18c-1.1 0-2 .9-2 2s.9 2 2 2 2-.9 2-2-.9-2-2-2zm-6-8c-1.1 0-2 .9-2 2s.9 2 2 2 2-.9 2-2-.9-2-2-2zm12 0c-1.1 0-2 .9-2 2s.9 2 2 2 2-.9 2-2-.9-2-2-2z"/>
  </symbol>
  <symbol id="icon-check" viewBox="0 0 24 24">
    <path d="M9 19l-7-7 1.41-1.41L9 16.17l11.59-11.59L22 6l-13 13z"/>
  </symbol>
  <symbol id="icon-error" viewBox="0 0 24 24">
    <path d="M12 2C6.48 2 2 6.48 2 12s4.48 10 10 10 10-4.48 10-10S17.52 2 12 2zm1 17h-2v-2h2v2zm0-4h-2V7h2v8z"/>
  </symbol>
</svg>